<svg width="130" height="52" viewBox="0 0 130 52" fill="none" xmlns="http://www.w3.org/2000/svg">
<path d="M38 46.389C37.9994 47.0813 37.7165 47.7451 37.2134 48.2346C36.7104 48.7242 36.0282 48.9994 35.3167 49H6.68545C5.97396 49 5.29156 48.7253 4.78806 48.2361C4.28456 47.747 4.00113 47.0834 4 46.391V5.61312C3.99972 5.26988 4.06899 4.92996 4.20385 4.6128C4.3387 4.29564 4.5365 4.00746 4.78592 3.76475C5.03535 3.52205 5.3315 3.32958 5.65744 3.19835C5.98338 3.06713 6.33271 2.99973 6.68545 3L24.9231 3L38 16V46.389Z" fill="#23A566"/>
<path d="M26 15.5L38 28V16L26 15.5Z" fill="url(#paint0_linear_24_425)"/>
<mask id="mask0_24_425" style="mask-type:alpha" maskUnits="userSpaceOnUse" x="23" y="3" width="15" height="16">
<path d="M23 19V3.24074L25 3L38 16V19H23Z" fill="#C4C4C4"/>
</mask>
<g mask="url(#mask0_24_425)">
<g filter="url(#filter0_d_24_425)">
<path d="M38 16H27.5556C26.1442 16 25 14.8558 25 13.4444V3L38 16Z" fill="#7ABD9D"/>
</g>
</g>
<path fill-rule="evenodd" clip-rule="evenodd" d="M30 41H12V26H30V41ZM21.9948 28V31H28.0336V28H21.9948ZM21.9948 32.5V35H28L28.0336 32.5H21.9948ZM21.9948 36.5V39H28.0336V36.5H21.9948ZM20.0168 39V36.5H13.9799V39H20.0168ZM20.0168 35L20 32.5H13.9799V35H20.0168ZM20.0168 31V28H13.9799V31H20.0168Z" fill="white"/>
<path d="M77.1298 19.6834C77.1298 17.3459 75.3697 15.748 73.3262 15.748C71.2826 15.748 69.5211 17.3459 69.5211 19.6834C69.5211 21.9972 71.2826 23.6189 73.3262 23.6189C75.3697 23.6189 77.1298 21.9942 77.1298 19.6834ZM80.092 19.6834C80.092 23.4229 77.0541 26.1791 73.3247 26.1791C69.5967 26.1791 66.5589 23.4229 66.5589 19.6834C66.5589 15.9173 69.5967 13.1877 73.3262 13.1877C77.0541 13.1877 80.092 15.9173 80.092 19.6834ZM91.7255 19.6834C91.7255 17.3459 89.9654 15.748 87.9219 15.748C85.8783 15.748 84.1182 17.3459 84.1182 19.6834C84.1182 21.9972 85.8783 23.6189 87.9219 23.6189C89.9654 23.6189 91.7255 21.9942 91.7255 19.6834ZM94.6877 19.6834C94.6877 23.4229 91.6498 26.1791 87.9219 26.1791C84.1939 26.1791 81.1546 23.4229 81.1546 19.6834C81.1546 15.9203 84.1939 13.1877 87.9219 13.1877C91.6498 13.1877 94.6891 15.9173 94.6891 19.6834H94.6877ZM106.075 19.7057C106.075 17.4187 104.49 15.7465 102.474 15.7465C100.429 15.7465 98.7184 17.4187 98.7184 19.7057C98.7184 21.9705 100.429 23.6189 102.473 23.6189C104.49 23.6189 106.075 21.9705 106.075 19.7072V19.7057ZM108.678 13.5798V25.2421C108.678 30.0389 105.739 31.9991 102.267 31.9991C101.005 32.0198 99.7643 31.6676 98.7011 30.9866C97.6379 30.3057 96.7989 29.3262 96.289 28.1706L98.8668 27.137C99.3268 28.1944 100.452 29.4419 102.265 29.4419C104.487 29.4419 105.864 28.1201 105.864 25.6341V24.6985H105.76C105.098 25.4871 103.821 26.1762 102.209 26.1762C98.8371 26.1762 95.7473 23.3471 95.7473 19.7072C95.7473 16.0391 98.8371 13.1877 102.209 13.1877C103.818 13.1877 105.095 13.8753 105.762 14.6401H105.866V13.5828H108.678V13.5798ZM113.316 6.74105H110.426V25.7797H113.314L113.316 6.74105ZM117.496 19.4815L123.524 17.0712C123.193 16.2589 122.195 15.6945 121.022 15.6945C119.516 15.6945 117.42 16.9747 117.496 19.4815ZM124.574 21.8175L126.872 23.2937C126.24 24.1944 125.397 24.9273 124.418 25.429C123.439 25.9307 122.352 26.1862 121.252 26.1732C117.42 26.1732 114.559 23.3219 114.559 19.6775C114.559 15.8148 117.446 13.1818 120.921 13.1818C124.421 13.1818 126.133 15.8638 126.694 17.3133L127 18.0514L117.983 21.6482C118.673 22.9521 119.747 23.6159 121.252 23.6159C122.762 23.6159 123.806 22.9031 124.574 21.819V21.8175ZM55.6229 17.9905V15.2342H65.2663C65.3598 15.7138 65.4087 16.2826 65.4087 16.8975C65.4087 18.9647 64.8225 21.522 62.9304 23.3427C61.0901 25.1886 58.7394 26.1732 55.6258 26.1732C49.8529 26.1732 45 21.6437 45 16.0866C45 10.5295 49.8529 6 55.6258 6C58.8195 6 61.0931 7.20588 62.8027 8.77857L60.7844 10.724C59.5586 9.61615 57.8979 8.75629 55.6229 8.75629C51.4082 8.75629 48.1121 12.0264 48.1121 16.0866C48.1121 20.1468 51.4082 23.4169 55.6229 23.4169C58.3565 23.4169 59.9133 22.3595 60.9106 21.3987C61.7209 20.619 62.2521 19.5067 62.4629 17.9875L55.6229 17.9905Z" fill="#787879"/>
<path d="M55.2056 43.1249C55.2056 44.2977 54.7733 45.2402 53.9098 45.951C53.0323 46.6503 51.9689 47 50.7161 47C49.6004 47 48.6184 46.6758 47.7665 46.0263C46.9146 45.3779 46.3254 44.4911 46 43.368L47.6538 42.6953C47.7665 43.0936 47.9222 43.456 48.1233 43.7802C48.3232 44.1044 48.5556 44.3857 48.8183 44.6231C49.0937 44.8477 49.3947 45.0283 49.7201 45.1649C50.0455 45.2899 50.3895 45.3525 50.7533 45.3525C51.5424 45.3525 52.1874 45.1533 52.6883 44.7539C53.1892 44.3417 53.4403 43.7987 53.4403 43.1249C53.4403 42.5633 53.2334 42.0829 52.8196 41.6846C52.4315 41.2979 51.7051 40.9228 50.6406 40.5615C49.5632 40.1748 48.8938 39.9132 48.63 39.7742C47.2029 39.0518 46.4881 37.9843 46.4881 36.5741C46.4881 35.5888 46.8832 34.7471 47.6724 34.0478C48.4743 33.3497 49.4575 33 50.622 33C51.6493 33 52.5384 33.2617 53.2892 33.7861C54.0411 34.2979 54.542 34.9405 54.793 35.7139L53.1776 36.3877C53.0254 35.8861 52.7071 35.4506 52.2746 35.1523C51.8365 34.8154 51.2984 34.6464 50.6592 34.6464C49.9828 34.6464 49.4133 34.8339 48.9508 35.2079C48.4859 35.5576 48.2535 36.0126 48.2535 36.5741C48.2535 37.0372 48.4359 37.4355 48.7997 37.7724C49.2006 38.1082 50.0711 38.5088 51.4111 38.9707C52.7755 39.4315 53.7471 40 54.3223 40.6727C54.9116 41.3349 55.2056 42.1523 55.2056 43.1249ZM56.986 33.2987H58.7142V37.5293L58.6387 38.8028H58.7142C58.9769 38.3525 59.3778 37.9785 59.9171 37.6798C60.4393 37.3875 61.0276 37.2325 61.6266 37.2294C62.7528 37.2294 63.6174 37.5536 64.2183 38.202C64.8319 38.8387 65.1387 39.7499 65.1387 40.9343V46.7001H63.4106V41.2724C63.4106 39.6249 62.6784 38.8017 61.2129 38.8017C60.5109 38.8017 59.9171 39.0946 59.4278 39.6816C58.9544 40.2485 58.7012 40.9659 58.7142 41.7031V46.7001H56.986V33.2987ZM71.3017 47C69.949 47 68.8344 46.5369 67.957 45.6141C67.0807 44.6914 66.6426 43.5243 66.6426 42.1141C66.6426 40.7167 67.0679 39.5566 67.9198 38.6338C68.7717 37.6972 69.8606 37.2294 71.189 37.2294C72.5534 37.2294 73.6377 37.6728 74.4385 38.5585C75.2531 39.4315 75.6599 40.6611 75.6599 42.245L75.6413 42.4325H68.4079C68.4335 43.331 68.7333 44.0546 69.3098 44.6034C69.8862 45.1522 70.5754 45.4277 71.3761 45.4277C72.479 45.4277 73.3425 44.8789 73.9689 43.7802L75.51 44.5293C75.115 45.283 74.5164 45.9118 73.7818 46.3447C73.0543 46.7812 72.228 47 71.3017 47ZM68.5392 41.0107H73.819C73.8008 40.7092 73.7215 40.4144 73.5859 40.1442C73.4503 39.874 73.2611 39.6339 73.0299 39.4385C72.5662 39.0136 71.9398 38.8017 71.1507 38.8017C70.4998 38.8017 69.9362 39.0008 69.4597 39.4003C68.9971 39.7997 68.6903 40.3369 68.5392 41.0096V41.0107ZM81.4661 47C80.1134 47 78.9977 46.5369 78.1214 45.6141C77.2451 44.6914 76.8058 43.5243 76.8058 42.1141C76.8058 40.7167 77.2323 39.5566 78.0842 38.6338C78.9361 37.6972 80.025 37.2294 81.3534 37.2294C82.7178 37.2294 83.801 37.6728 84.6029 38.5585C85.4175 39.4315 85.8243 40.6611 85.8243 42.245L85.8057 42.4325H78.5723C78.5979 43.331 78.8977 44.0546 79.4742 44.6034C80.0506 45.1522 80.7386 45.4277 81.5405 45.4277C82.6434 45.4277 83.5069 44.8789 84.1333 43.7802L85.6744 44.5293C85.2793 45.2833 84.6802 45.9121 83.9451 46.3447C83.2187 46.7812 82.3924 47 81.4661 47ZM78.7036 41.0107H83.9834C83.9652 40.7092 83.8859 40.4144 83.7503 40.1442C83.6147 39.874 83.4255 39.6339 83.1943 39.4385C82.7306 39.0136 82.1042 38.8017 81.3151 38.8017C80.6642 38.8017 80.1006 39.0008 79.6241 39.4003C79.1615 39.7997 78.8536 40.3369 78.7036 41.0096V41.0107ZM90.774 46.8495C90.0232 46.8495 89.3968 46.6179 88.8959 46.1571C88.4067 45.6952 88.1568 45.0526 88.144 44.2294V39.1004H86.5286V37.5293H88.144V34.7216H89.8722V37.5293H92.1268V39.1016H89.8722V43.6679C89.8722 44.2792 89.9919 44.6983 90.2301 44.9218C90.4672 45.1336 90.7368 45.2402 91.0378 45.2402C91.175 45.2402 91.3063 45.2286 91.4318 45.2031C91.5701 45.1649 91.6945 45.1221 91.8072 45.0723L92.3522 46.6064C91.9013 46.7684 91.376 46.8495 90.774 46.8495ZM101 44.1542C101 44.953 100.649 45.6269 99.9482 46.1757C99.2463 46.7244 98.363 47 97.2985 47C96.3722 47 95.5575 46.7627 94.8567 46.288C94.1703 45.821 93.6455 45.1542 93.354 44.3788L94.8939 43.7246C95.1194 44.2734 95.4448 44.7041 95.8713 45.0155C96.3095 45.3154 96.7848 45.4648 97.2985 45.4648C97.8505 45.4648 98.3072 45.3467 98.6698 45.1093C99.0464 44.872 99.2335 44.5918 99.2335 44.2665C99.2335 43.6806 98.7826 43.2499 97.8807 42.9755L96.3037 42.5819C94.5116 42.1338 93.6167 41.2724 93.6167 40C93.6167 39.1641 93.9549 38.496 94.6313 37.997C95.3204 37.4853 96.1967 37.2294 97.2613 37.2294C98.0748 37.2294 98.8081 37.4228 99.459 37.8095C100.124 38.1962 100.586 38.7149 100.85 39.3632L99.309 40C99.1318 39.6113 98.8268 39.2943 98.4444 39.1016C98.0445 38.8739 97.5905 38.7575 97.13 38.7646C96.679 38.7646 96.2723 38.8769 95.9085 39.1004C95.5575 39.3262 95.382 39.6006 95.382 39.9247C95.382 40.4492 95.8771 40.8232 96.8673 41.0478L98.2573 41.4032C100.085 41.8525 101 42.7694 101 44.1542Z" fill="#787879"/>
<defs>
<filter id="filter0_d_24_425" x="23.2963" y="1.2963" width="16.4074" height="16.4074" filterUnits="userSpaceOnUse" color-interpolation-filters="sRGB">
<feFlood flood-opacity="0" result="BackgroundImageFix"/>
<feColorMatrix in="SourceAlpha" type="matrix" values="0 0 0 0 0 0 0 0 0 0 0 0 0 0 0 0 0 0 127 0" result="hardAlpha"/>
<feOffset/>
<feGaussianBlur stdDeviation="0.851852"/>
<feComposite in2="hardAlpha" operator="out"/>
<feColorMatrix type="matrix" values="0 0 0 0 0 0 0 0 0 0 0 0 0 0 0 0 0 0 0.25 0"/>
<feBlend mode="normal" in2="BackgroundImageFix" result="effect1_dropShadow_24_425"/>
<feBlend mode="normal" in="SourceGraphic" in2="effect1_dropShadow_24_425" result="shape"/>
</filter>
<linearGradient id="paint0_linear_24_425" x1="32" y1="16" x2="38.7749" y2="27.5453" gradientUnits="userSpaceOnUse">
<stop offset="0.208333" stop-color="#1C8F5A"/>
<stop offset="1" stop-color="#1C8F5A" stop-opacity="0"/>
</linearGradient>
</defs>
</svg>
