<svg width="100" height="100" viewBox="0 0 100 100" fill="none" xmlns="http://www.w3.org/2000/svg">
<path d="M22.6633 56.7978C18.9089 53.0435 18.9089 46.9565 22.6633 43.2022L58.2919 7.5736C61.8066 4.05888 67.5051 4.05888 71.0198 7.57359V7.57359C74.5345 11.0883 74.5345 16.7868 71.0198 20.3015L29.2732 62.0481C28.8977 62.4236 28.2891 62.4236 27.9136 62.0481L22.6633 56.7978Z" fill="#2A8CFF"/>
<path d="M44.2314 54.2697C44.6068 53.8943 45.2155 53.8943 45.5909 54.2697L71.0741 79.7529C74.5888 83.2676 74.5888 88.9661 71.0741 92.4808V92.4808C67.5594 95.9956 61.8609 95.9956 58.3462 92.4808L32.863 66.9977C32.4876 66.6222 32.4876 66.0135 32.863 65.6381L44.2314 54.2697Z" fill="#FB005E"/>
<path d="M49.1808 50.6798C48.8053 50.3043 48.8053 49.6957 49.1808 49.3202L58.8096 39.6914C62.2342 36.2668 67.7866 36.2668 71.2112 39.6914V39.6914C74.816 43.2962 74.816 49.1408 71.2112 52.7456L61.9087 62.0481C61.5332 62.4236 60.9246 62.4236 60.5491 62.0481L49.1808 50.6798Z" fill="#FFC108"/>
</svg>
